<svg xmlns="http://www.w3.org/2000/svg" viewBox="0 0 600 600" width="600" height="600" role="img"><defs>
    <linearGradient id="bg-969" x1="0" y1="0" x2="1" y2="1">
      <stop offset="0" stop-color="#F0C86A" stop-opacity="0.32"/>
      <stop offset="1" stop-color="#B62A20" stop-opacity="0.5"/>
    </linearGradient>
    <radialGradient id="gl-969" cx="0.34" cy="0.28" r="0.75">
      <stop offset="0" stop-color="#ffffff" stop-opacity="0.55"/>
      <stop offset="1" stop-color="#ffffff" stop-opacity="0"/>
    </radialGradient>
  </defs>
  <rect width="600" height="600" fill="#FFF7F0"/>
  <rect width="600" height="600" fill="url(#bg-969)"/>
  <rect width="600" height="600" fill="url(#gl-969)"/>
  <circle cx="300" cy="300" r="269.28000000000003" fill="#FFF7F0" stroke="#191512" stroke-width="9.180000000000001"/>
  <circle cx="300" cy="300" r="224.40000000000006" fill="none" stroke="#191512" stroke-width="4.080000000000001" opacity="0.35"/>
  <circle cx="300" cy="300" r="204.00000000000003" fill="#B62A20"/>
  <circle cx="300" cy="300" r="134.64000000000001" fill="#F0C86A" opacity="0.9"/>
  <circle cx="280.3" cy="248.6" r="10.2" fill="#1F6B4A" opacity="0.72"/><circle cx="364.6" cy="237.6" r="14.7" fill="#1F6B4A" opacity="0.72"/><circle cx="339.4" cy="316.7" r="19.2" fill="#1F6B4A" opacity="0.72"/><circle cx="300.0" cy="377.5" r="10.2" fill="#1F6B4A" opacity="0.72"/><circle cx="196.7" cy="343.8" r="14.7" fill="#1F6B4A" opacity="0.72"/><circle cx="253.0" cy="254.7" r="19.2" fill="#1F6B4A" opacity="0.72"/><circle cx="335.8" cy="206.7" r="10.2" fill="#1F6B4A" opacity="0.72"/><circle cx="353.0" cy="298.1" r="14.7" fill="#1F6B4A" opacity="0.72"/><circle cx="337.1" cy="379.5" r="19.2" fill="#1F6B4A" opacity="0.72"/><circle cx="272.7" cy="330.3" r="10.2" fill="#1F6B4A" opacity="0.72"/>
  <path d="M173.51999999999998 397.92q126.48000000000002 69.36000000000001 252.96000000000004 0"
        fill="none" stroke="#191512" stroke-width="7.1400000000000015" opacity="0.28"/></svg>
