<svg xmlns="http://www.w3.org/2000/svg" viewBox="0 0 600 600" width="600" height="600" role="img"><defs>
    <linearGradient id="bg-1527" x1="0" y1="0" x2="1" y2="1">
      <stop offset="0" stop-color="#F0C86A" stop-opacity="0.32"/>
      <stop offset="1" stop-color="#B62A20" stop-opacity="0.5"/>
    </linearGradient>
    <radialGradient id="gl-1527" cx="0.34" cy="0.28" r="0.75">
      <stop offset="0" stop-color="#ffffff" stop-opacity="0.55"/>
      <stop offset="1" stop-color="#ffffff" stop-opacity="0"/>
    </radialGradient>
  </defs>
  <rect width="600" height="600" fill="#FFF7F0"/>
  <rect width="600" height="600" fill="url(#bg-1527)"/>
  <rect width="600" height="600" fill="url(#gl-1527)"/>
  <circle cx="300" cy="300" r="269.28000000000003" fill="#FFF7F0" stroke="#191512" stroke-width="9.180000000000001"/>
  <circle cx="300" cy="300" r="224.40000000000006" fill="none" stroke="#191512" stroke-width="4.080000000000001" opacity="0.35"/>
  <circle cx="300" cy="300" r="204.00000000000003" fill="#B62A20"/>
  <circle cx="300" cy="300" r="134.64000000000001" fill="#F0C86A" opacity="0.9"/>
  <circle cx="302.7" cy="350.9" r="10.2" fill="#7A2B18" opacity="0.72"/><circle cx="223.0" cy="337.6" r="14.7" fill="#7A2B18" opacity="0.72"/><circle cx="270.7" cy="274.6" r="19.2" fill="#7A2B18" opacity="0.72"/><circle cx="322.7" cy="230.2" r="10.2" fill="#7A2B18" opacity="0.72"/><circle cx="407.7" cy="290.6" r="14.7" fill="#7A2B18" opacity="0.72"/><circle cx="328.7" cy="354.0" r="19.2" fill="#7A2B18" opacity="0.72"/><circle cx="239.7" cy="374.5" r="10.2" fill="#7A2B18" opacity="0.72"/><circle cx="252.9" cy="286.5" r="14.7" fill="#7A2B18" opacity="0.72"/><circle cx="289.8" cy="217.0" r="19.2" fill="#7A2B18" opacity="0.72"/><circle cx="331.8" cy="281.6" r="10.2" fill="#7A2B18" opacity="0.72"/>
  <path d="M173.51999999999998 397.92q126.48000000000002 69.36000000000001 252.96000000000004 0"
        fill="none" stroke="#191512" stroke-width="7.1400000000000015" opacity="0.28"/></svg>
