<svg xmlns="http://www.w3.org/2000/svg" viewBox="0 0 960 540" width="960" height="540" role="img"><defs>
    <linearGradient id="bg-6435" x1="0" y1="0" x2="1" y2="1">
      <stop offset="0" stop-color="#F0C86A" stop-opacity="0.32"/>
      <stop offset="1" stop-color="#B62A20" stop-opacity="0.5"/>
    </linearGradient>
    <radialGradient id="gl-6435" cx="0.34" cy="0.28" r="0.75">
      <stop offset="0" stop-color="#ffffff" stop-opacity="0.55"/>
      <stop offset="1" stop-color="#ffffff" stop-opacity="0"/>
    </radialGradient>
  </defs>
  <rect width="960" height="540" fill="#FFF7F0"/>
  <rect width="960" height="540" fill="url(#bg-6435)"/>
  <rect width="960" height="540" fill="url(#gl-6435)"/>
  <circle cx="480" cy="270" r="242.35200000000003" fill="#FFF7F0" stroke="#191512" stroke-width="8.262"/>
  <circle cx="480" cy="270" r="201.96000000000004" fill="none" stroke="#191512" stroke-width="3.6720000000000006" opacity="0.35"/>
  <circle cx="480" cy="270" r="183.60000000000002" fill="#B62A20"/>
  <circle cx="480" cy="270" r="121.17600000000002" fill="#F0C86A" opacity="0.9"/>
  <circle cx="548.8" cy="201.2" r="9.2" fill="#1F6B4A" opacity="0.72"/><circle cx="531.1" cy="290.6" r="13.2" fill="#1F6B4A" opacity="0.72"/><circle cx="481.5" cy="356.3" r="17.3" fill="#1F6B4A" opacity="0.72"/><circle cx="439.7" cy="287.9" r="9.2" fill="#1F6B4A" opacity="0.72"/><circle cx="424.9" cy="218.7" r="13.2" fill="#1F6B4A" opacity="0.72"/><circle cx="491.3" cy="238.9" r="17.3" fill="#1F6B4A" opacity="0.72"/><circle cx="544.2" cy="266.6" r="9.2" fill="#1F6B4A" opacity="0.72"/><circle cx="521.9" cy="355.8" r="13.2" fill="#1F6B4A" opacity="0.72"/><circle cx="445.1" cy="310.2" r="17.3" fill="#1F6B4A" opacity="0.72"/><circle cx="399.7" cy="243.9" r="9.2" fill="#1F6B4A" opacity="0.72"/>
  <path d="M366.168 358.12800000000004q113.83200000000001 62.424000000000014 227.66400000000002 0"
        fill="none" stroke="#191512" stroke-width="6.426000000000001" opacity="0.28"/><text x="48" y="76" fill="#191512"
      font-family="Inter, system-ui, sans-serif" font-weight="700" font-size="33"
      letter-spacing="-0.4">Family Pack for 4</text><g>
    <rect x="27" y="472" width="346" height="41" rx="11.48"
          fill="#191512" opacity="0.86"/>
    <text x="43.400000000000006" y="500.7" fill="#FFF7F0"
          font-family="Inter, system-ui, sans-serif" font-size="17"
          letter-spacing="1.4">DEMO IMAGE — REPLACE</text>
  </g></svg>
